<svg width="211" height="25" viewBox="0 0 211 25" fill="none" xmlns="http://www.w3.org/2000/svg">
<path d="M11.188 4.984V8.092L1.08 12.572L0.52 11.536V9.856L11.188 4.984ZM11.188 14.336V17.696L0.52 12.824V11.032L1.108 9.856L11.188 14.336ZM16.216 17.808V14.672L26.576 10.08L27.136 11.116V12.824L16.216 17.808ZM16.216 8.232V4.816L27.136 9.828V11.62L26.548 12.796L16.216 8.232ZM36.6159 0.391998V18.424C36.6159 18.76 36.7559 18.984 37.0359 19.096C37.3159 19.208 37.6613 19.264 38.0719 19.264H38.0999V21H29.9799V19.264H30.0079C30.4559 19.264 30.8106 19.208 31.0719 19.096C31.3519 18.984 31.4919 18.76 31.4919 18.424V3.192C31.4919 2.98667 31.4453 2.828 31.3519 2.716C31.2773 2.604 31.1466 2.52 30.9599 2.464C30.7733 2.38933 30.5213 2.31467 30.2039 2.24L29.9799 2.184V0.391998H36.6159ZM45.5794 6.664V16.408C45.5794 16.8933 45.6261 17.2947 45.7194 17.612C45.8314 17.9293 45.9994 18.1627 46.2234 18.312C46.4474 18.4427 46.7461 18.508 47.1194 18.508C47.5488 18.508 47.9408 18.396 48.2954 18.172C48.6688 17.948 49.0328 17.6027 49.3874 17.136C49.7421 16.6507 50.0874 16.016 50.4234 15.232L50.4794 17.864C50.0874 18.6293 49.6301 19.264 49.1074 19.768C48.5848 20.272 47.9968 20.6547 47.3434 20.916C46.6901 21.1587 45.9714 21.28 45.1874 21.28C44.2541 21.28 43.4328 21.1027 42.7234 20.748C42.0141 20.3747 41.4634 19.8333 41.0714 19.124C40.6794 18.396 40.4834 17.5 40.4834 16.436V9.464C40.4834 9.16533 40.3808 8.96 40.1754 8.848C39.9701 8.71733 39.6434 8.60533 39.1954 8.512L38.9434 8.456V6.664H45.5794ZM54.9594 6.664V18.34C54.9594 18.5267 55.0154 18.676 55.1274 18.788C55.2394 18.9 55.3981 18.984 55.6034 19.04C55.8088 19.096 56.0608 19.1427 56.3594 19.18L56.4994 19.208V21H50.1994V17.78L49.8634 17.892V9.464C49.8634 9.16533 49.7234 8.95067 49.4434 8.82C49.1634 8.68933 48.7994 8.596 48.3514 8.54L47.9314 8.456V6.664H54.9594ZM75.7698 21H67.0338V19.264H67.1178C67.2858 19.264 67.4631 19.2547 67.6498 19.236C67.8551 19.2173 68.0231 19.1893 68.1538 19.152C68.3031 19.1147 68.3778 19.068 68.3778 19.012L64.8498 13.832V13.216L69.7218 8.904C69.7218 8.75467 69.6004 8.652 69.3578 8.596C69.1338 8.52133 68.8631 8.47467 68.5458 8.456C68.2471 8.41867 67.9671 8.4 67.7058 8.4H67.5378V6.664H74.7058V8.4H74.6498C74.2951 8.4 73.9498 8.44667 73.6138 8.54C73.2778 8.63333 72.9604 8.77333 72.6618 8.96C72.3818 9.128 72.1111 9.33333 71.8498 9.576L67.5378 13.412L68.5738 11.2L73.5858 18.312C73.7724 18.5547 73.9778 18.7507 74.2018 18.9C74.4258 19.0307 74.6591 19.124 74.9018 19.18C75.1631 19.236 75.4338 19.264 75.7138 19.264H75.7698V21ZM64.2618 0.391998V19.012C64.2618 19.068 64.3271 19.124 64.4578 19.18C64.6071 19.2173 64.7751 19.2453 64.9618 19.264C65.1671 19.264 65.3538 19.264 65.5218 19.264H65.5778V21H57.6258V19.264H57.6538C58.0831 19.264 58.4378 19.208 58.7178 19.096C58.9978 18.984 59.1378 18.76 59.1378 18.424V3.192C59.1378 2.98667 59.0911 2.828 58.9978 2.716C58.9231 2.604 58.7924 2.52 58.6058 2.464C58.4191 2.38933 58.1671 2.31467 57.8498 2.24L57.6258 2.184V0.391998H64.2618ZM92.3287 13.832C92.3287 15.288 91.9927 16.5853 91.3207 17.724C90.6674 18.844 89.7247 19.7213 88.4927 20.356C87.2794 20.972 85.8421 21.28 84.1807 21.28C82.5194 21.28 81.0727 20.972 79.8407 20.356C78.6274 19.7213 77.6847 18.844 77.0127 17.724C76.3594 16.5853 76.0327 15.288 76.0327 13.832C76.0327 12.7307 76.2194 11.7227 76.5927 10.808C76.9661 9.89333 77.5074 9.10933 78.2167 8.456C78.9447 7.784 79.8034 7.27067 80.7927 6.916C81.8007 6.56133 82.9301 6.384 84.1807 6.384C85.4314 6.384 86.5514 6.56133 87.5407 6.916C88.5487 7.27067 89.4074 7.784 90.1167 8.456C90.8447 9.10933 91.3954 9.89333 91.7687 10.808C92.1421 11.7227 92.3287 12.7307 92.3287 13.832ZM81.2967 13.832C81.2967 14.9893 81.4087 15.9693 81.6327 16.772C81.8567 17.556 82.1834 18.1533 82.6127 18.564C83.0421 18.9747 83.5647 19.18 84.1807 19.18C84.8154 19.18 85.3381 18.9747 85.7487 18.564C86.1781 18.1533 86.5047 17.556 86.7287 16.772C86.9527 15.9693 87.0647 14.9893 87.0647 13.832C87.0647 12.656 86.9527 11.676 86.7287 10.892C86.5047 10.108 86.1781 9.52 85.7487 9.128C85.3381 8.736 84.8154 8.54 84.1807 8.54C83.5647 8.54 83.0421 8.736 82.6127 9.128C82.1834 9.52 81.8567 10.108 81.6327 10.892C81.4087 11.676 81.2967 12.656 81.2967 13.832ZM105.011 10.864L102.351 21H97.5074L94.3994 9.296C94.3434 9.05333 94.2407 8.86667 94.0914 8.736C93.9607 8.60533 93.8021 8.512 93.6154 8.456C93.4287 8.4 93.2047 8.372 92.9434 8.372H92.8874V6.664H101.147V8.372H101.119C100.821 8.372 100.531 8.38133 100.251 8.4C99.9901 8.41867 99.7661 8.44667 99.5794 8.484C99.4114 8.50267 99.3274 8.54933 99.3274 8.624L101.651 18.228L100.839 19.292L104.087 6.664H108.091L111.115 18.2L110.219 19.208L112.823 8.96C112.823 8.848 112.739 8.74533 112.571 8.652C112.422 8.55867 112.217 8.49333 111.955 8.456C111.713 8.4 111.451 8.372 111.171 8.372H111.115V6.664H116.491V8.372H116.435C116.211 8.372 115.997 8.40933 115.791 8.484C115.605 8.55867 115.437 8.68 115.287 8.848C115.138 9.016 115.017 9.25867 114.923 9.576L111.927 21H107.083L104.507 10.64L105.011 10.864ZM125.72 17.528C125.72 17.2293 125.627 16.9773 125.44 16.772C125.272 16.5667 125.03 16.3987 124.712 16.268C124.414 16.1187 124.068 15.988 123.676 15.876C123.284 15.764 122.864 15.652 122.416 15.54C121.856 15.3907 121.287 15.2227 120.708 15.036C120.13 14.8307 119.598 14.56 119.112 14.224C118.646 13.888 118.263 13.4587 117.964 12.936C117.666 12.3947 117.516 11.7227 117.516 10.92C117.516 9.93067 117.778 9.09067 118.3 8.4C118.842 7.70933 119.579 7.196 120.512 6.86C121.464 6.50533 122.575 6.328 123.844 6.328C124.89 6.328 125.786 6.412 126.532 6.58C127.279 6.72933 127.886 6.90667 128.352 7.112C128.819 7.31733 129.146 7.49467 129.332 7.644V10.528H125.832V8.092C126.112 8.07333 126.327 8.11067 126.476 8.204C126.626 8.27867 126.71 8.38133 126.728 8.512C126.766 8.64267 126.766 8.792 126.728 8.96C126.691 9.10933 126.635 9.24933 126.56 9.38C126.355 9.156 126.122 8.96933 125.86 8.82C125.599 8.652 125.3 8.53067 124.964 8.456C124.647 8.38133 124.283 8.344 123.872 8.344C123.182 8.344 122.659 8.484 122.304 8.764C121.95 9.02533 121.772 9.38 121.772 9.828C121.772 10.1453 121.866 10.416 122.052 10.64C122.239 10.8453 122.491 11.0227 122.808 11.172C123.144 11.3027 123.518 11.4333 123.928 11.564C124.339 11.676 124.778 11.788 125.244 11.9C125.842 12.0493 126.43 12.2267 127.008 12.432C127.606 12.6373 128.147 12.908 128.632 13.244C129.136 13.58 129.538 14.0093 129.836 14.532C130.135 15.036 130.284 15.6613 130.284 16.408C130.284 17.4533 130.014 18.34 129.472 19.068C128.95 19.7773 128.166 20.328 127.12 20.72C126.094 21.0933 124.824 21.28 123.312 21.28C122.304 21.28 121.39 21.196 120.568 21.028C119.766 20.8787 119.066 20.692 118.468 20.468C117.89 20.2253 117.432 20.0013 117.096 19.796V16.604H120.68V19.852C120.344 19.7027 120.083 19.5347 119.896 19.348C119.728 19.1427 119.616 18.9467 119.56 18.76C119.504 18.5733 119.504 18.4053 119.56 18.256C119.635 18.1067 119.756 18.0227 119.924 18.004C120.186 18.3027 120.484 18.5453 120.82 18.732C121.175 18.9 121.558 19.0307 121.968 19.124C122.379 19.1987 122.836 19.236 123.34 19.236C123.844 19.236 124.264 19.1707 124.6 19.04C124.955 18.9093 125.226 18.7227 125.412 18.48C125.618 18.2187 125.72 17.9013 125.72 17.528ZM149.762 21H141.026V19.264H141.11C141.278 19.264 141.455 19.2547 141.642 19.236C141.847 19.2173 142.015 19.1893 142.146 19.152C142.295 19.1147 142.37 19.068 142.37 19.012L138.842 13.832V13.216L143.714 8.904C143.714 8.75467 143.593 8.652 143.35 8.596C143.126 8.52133 142.855 8.47467 142.538 8.456C142.239 8.41867 141.959 8.4 141.698 8.4H141.53V6.664H148.698V8.4H148.642C148.287 8.4 147.942 8.44667 147.606 8.54C147.27 8.63333 146.953 8.77333 146.654 8.96C146.374 9.128 146.103 9.33333 145.842 9.576L141.53 13.412L142.566 11.2L147.578 18.312C147.765 18.5547 147.97 18.7507 148.194 18.9C148.418 19.0307 148.651 19.124 148.894 19.18C149.155 19.236 149.426 19.264 149.706 19.264H149.762V21ZM138.254 0.391998V19.012C138.254 19.068 138.319 19.124 138.45 19.18C138.599 19.2173 138.767 19.2453 138.954 19.264C139.159 19.264 139.346 19.264 139.514 19.264H139.57V21H131.618V19.264H131.646C132.075 19.264 132.43 19.208 132.71 19.096C132.99 18.984 133.13 18.76 133.13 18.424V3.192C133.13 2.98667 133.083 2.828 132.99 2.716C132.915 2.604 132.785 2.52 132.598 2.464C132.411 2.38933 132.159 2.31467 131.842 2.24L131.618 2.184V0.391998H138.254ZM154.927 4.704C154.068 4.704 153.387 4.49867 152.883 4.088C152.397 3.67733 152.155 3.108 152.155 2.38C152.155 1.652 152.397 1.092 152.883 0.699999C153.387 0.289332 154.068 0.0839989 154.927 0.0839989C155.767 0.0839989 156.429 0.289332 156.915 0.699999C157.419 1.092 157.671 1.652 157.671 2.38C157.671 3.108 157.419 3.67733 156.915 4.088C156.429 4.49867 155.767 4.704 154.927 4.704ZM157.559 6.664V18.424C157.559 18.76 157.699 18.984 157.979 19.096C158.259 19.208 158.604 19.264 159.015 19.264H159.043V21H150.923V19.264H150.951C151.38 19.264 151.735 19.208 152.015 19.096C152.295 18.984 152.435 18.76 152.435 18.424V9.464C152.435 9.16533 152.332 8.96 152.127 8.848C151.921 8.71733 151.595 8.60533 151.147 8.512L150.923 8.456V6.664H157.559ZM163.86 21.336C162.964 21.336 162.254 21.0933 161.732 20.608C161.228 20.1227 160.976 19.488 160.976 18.704C160.976 17.92 161.228 17.2853 161.732 16.8C162.254 16.3147 162.964 16.072 163.86 16.072C164.756 16.072 165.456 16.3147 165.96 16.8C166.482 17.2853 166.744 17.92 166.744 18.704C166.744 19.488 166.482 20.1227 165.96 20.608C165.456 21.0933 164.756 21.336 163.86 21.336ZM181.376 4.984V8.092L171.268 12.572L170.708 11.536V9.856L181.376 4.984ZM181.376 14.336V17.696L170.708 12.824V11.032L171.296 9.856L181.376 14.336ZM197.127 0.335999L186.879 24.948H183.435L193.683 0.335999H197.127ZM199.31 17.808V14.672L209.67 10.08L210.23 11.116V12.824L199.31 17.808ZM199.31 8.232V4.816L210.23 9.828V11.62L209.642 12.796L199.31 8.232Z" fill="white"/>
</svg>
